PathFileType	4	(X/Y/Z)	Patient5_TMGait_0pt45_1_left_10.trc.trc
DataRate	CameraRate	NumFrames	NumMarkers	Units	OrigDataRate	OrigDataStartFrame	OrigNumFrames
55.776892430279	55.776892430279	7	32	mm	55.776892430279	106	       141
Frame#	Time	R.ASIS			L.ASIS			Chest			R.Shoulder			Neck			L.Shoulder			L.Elbow			L.Wrist			R.Elbow			R.Wrist			L.Thigh.Superior			L.Thigh.Lateral			L.Thigh.Inferior			L.Patella			L.Shank.Superior			L.Shank.Lateral			L.Shank.Inferior			L.Heel			L.Midfoot.Lateral			L.Midfoot.Superior			L.Toe			R.Thigh.Superior			R.Thigh.Lateral			R.Thigh.Inferior			R.Patella			R.Shank.Superior			R.Shank.Lateral			R.Shank.Inferior			R.Heel			R.Midfoot.Lateral			R.Midfoot.Superior			R.Toe			
		X1	Y1	Z1	X2	Y2	Z2	X3	Y3	Z3	X4	Y4	Z4	X5	Y5	Z5	X6	Y6	Z6	X7	Y7	Z7	X8	Y8	Z8	X9	Y9	Z9	X10	Y10	Z10	X11	Y11	Z11	X12	Y12	Z12	X13	Y13	Z13	X14	Y14	Z14	X15	Y15	Z15	X16	Y16	Z16	X17	Y17	Z17	X18	Y18	Z18	X19	Y19	Z19	X20	Y20	Z20	X21	Y21	Z21	X22	Y22	Z22	X23	Y23	Z23	X24	Y24	Z24	X25	Y25	Z25	X26	Y26	Z26	X27	Y27	Z27	X28	Y28	Z28	X29	Y29	Z29	X30	Y30	Z30	X31	Y31	Z31	X32	Y32	Z32	

106	17.032500000000	959.458733699213	967.280400689405	603.110428998029	931.314298341913	956.060559106176	365.580290706942	1023.574863161754	1426.901666850594	518.736694994767	934.078146419240	1480.159154197681	694.680284484846	895.790867790198	1550.919562969916	516.204818936704	951.602976122643	1507.088703347492	329.470760924601	861.514441988986	1199.298042098786	187.242185556624	961.962568275373	926.651314272022	191.171404910199	862.450836108204	1161.957323754036	839.716278917834	1072.334284997798	980.049855990550	754.986741317932	984.902619225015	753.108433644936	325.220108842807	925.139799389831	675.043956321492	282.234775068762	1018.831849791448	628.285566889762	327.458044715399	1029.033668359667	482.310986838197	318.678161925017	928.077846351244	401.799898073388	348.752257961386	828.909648787475	388.807219818338	278.160086327198	826.993983228661	327.677369148240	366.257691735890	578.295656989142	240.869219355375	371.941053407437	624.265723301071	151.057922395286	325.928088210457	739.688957443062	136.243195409134	365.852246003306	787.242361683381	43.698191399030	389.136358451974	958.059604715184	734.608034614461	616.373391721688	867.561285624457	660.875015829271	670.164620791198	940.111407068923	607.508212199887	589.900581668344	936.953441777437	512.927346770103	615.117306478583	897.175184142262	420.048605842953	575.653044239473	832.697687451571	346.771262904824	656.054226122082	890.255210663148	281.668682811284	570.411442075729	783.297172671769	53.088047753632	526.367305047707	858.346011040023	24.647948817162	603.110353825368	964.766285658125	88.305595528571	583.103387634325	1068.913230773156	44.868610136703	587.832861092754	
107	17.050428571429	956.313568366581	966.647649852684	605.511515657442	927.683127697815	954.919967533658	367.592620643716	1023.151462415502	1424.768243594826	519.085705457041	935.170241511682	1477.945609135550	695.448564472694	895.930672716186	1549.440481871949	517.330008676019	950.541388399844	1505.791216505793	330.353806189547	858.553812425256	1197.591852094848	189.593558370925	959.548769206233	925.177492734148	192.669238655009	866.609282525580	1160.260931944610	842.813906331492	1074.562334787340	975.911353030270	758.686976180107	987.482276734135	757.643304402161	327.222566180637	931.432078756560	677.788870672960	283.217186907027	1026.813277611259	634.556719698889	329.133537368405	1041.609818568373	487.738660016930	320.000412851695	939.871408589237	406.289817965320	349.126398621264	841.457649971764	394.131099665796	277.419356611111	837.417279192760	333.342616661524	365.628186053763	587.705032267181	249.317795534828	369.014512231721	633.771025591844	159.650096759531	322.699386652363	748.914651464961	143.745578141686	363.912252628956	795.892885547682	47.327113196873	386.336435350080	953.659605908878	733.955773043699	618.340683615880	862.541405111111	660.762578785577	672.051093363192	934.720207459625	606.861937616761	591.818207425932	930.825267408684	512.289230335995	616.740124079955	890.329343488073	419.832677068800	577.028268132661	825.848642505905	346.750136453994	657.368073285143	882.934374276276	281.559214296235	571.371388725392	775.164866733244	53.237462723555	526.602774730429	850.218346283723	24.621215608833	603.262398072780	956.648321971008	88.224665606362	583.190522387909	1060.814889933926	44.890336124332	587.841875302645	
108	17.068357142857	953.129259865382	966.333607797345	607.784904571703	924.205580229395	954.296157359212	369.395392747534	1022.730881437144	1423.026977725552	519.017461064118	936.104535839470	1476.377155293729	695.638718835004	896.234987346635	1548.435017900654	517.804321533801	949.820482371516	1504.786316294262	330.700298879604	856.237226847021	1196.199841778440	191.314400300692	957.419000438442	923.890665194321	194.186098720780	870.334445209154	1159.187922462855	845.083775309940	1076.550687740558	972.445508426068	761.917881655803	989.460676222455	762.620407430893	330.054347266984	936.984271221561	681.233382278181	284.861351712923	1033.521233073924	641.298847298093	331.826742125880	1052.807930763913	493.892016870515	322.116532155530	951.025075828984	410.993416967489	350.096256399149	853.356907316642	398.832568599843	277.326006217733	848.095935648246	338.026604486546	365.469426253820	598.231494205196	252.508337382528	366.525068231366	646.273011212674	164.646431246370	319.291904597260	761.177794808151	149.874054303092	361.775722640635	809.589779327144	51.621272929802	382.747211963797	949.595811844743	733.508219573734	620.153252457621	857.897924872055	660.691474785956	673.637630247001	929.918264713304	606.357421835466	593.548071392484	925.300579150285	511.750245394476	618.186729165066	884.131720685469	419.649887778970	578.245693050704	819.433997454183	346.813514341919	658.468520795924	875.960178381823	281.422526460933	572.180779905906	767.002814784868	53.394188072649	526.844534860620	842.084673485269	24.616756347068	603.409215694984	948.557555793980	88.146463780737	583.280789923368	1052.716764437296	44.921266934367	587.879322648401	
109	17.086285714286	949.919115734959	966.203661470495	609.616672914862	920.862324897488	954.223077923764	370.860632648036	1022.372041296756	1421.695886411518	518.600256948170	936.940257803974	1475.522279177041	695.348430834025	896.721415097824	1547.915106012516	517.708278979228	949.473758219705	1504.040952592130	330.577144415937	854.588327894561	1195.163350921709	192.360292659054	955.602211133266	922.838297142694	195.690623391250	873.364855344214	1158.848297125272	846.582290416586	1078.230872385249	970.068035021528	764.548047646002	990.782542592390	767.846292896155	333.355132772649	941.674778917207	685.178475960026	286.924151943581	1038.910377706415	648.256021914255	335.188523036569	1062.608176783084	500.598120955425	324.750051836760	961.636868387081	415.638197489962	351.436112503861	864.685821549903	402.536141331772	277.773494371625	859.276677796038	341.344090125119	365.654789575614	610.355473982718	250.161679092207	364.574949401701	661.887506560226	165.679000727375	315.793186385827	776.664420176478	154.052551513195	359.303569301730	828.409953935376	56.042624248367	378.166840474770	945.676301349008	733.166882451756	621.591004177714	853.456983155646	660.648759289767	674.840431085814	925.375997061203	605.932095962285	594.899857337725	920.065339176349	511.271557084070	619.288671128239	878.279923448354	419.520177736172	579.196590096834	813.237326258725	346.957271525677	659.300850223295	869.145825888455	281.285925001502	572.780666117331	758.800669775412	53.526880227257	527.071023797774	833.940331948684	24.629360244369	603.539129075474	940.474863140879	88.075360886891	583.369931167557	1044.612346327756	44.960413072927	587.937348153249	
110	17.104214285714	946.696203086337	966.115541758914	610.804975725698	917.631163685205	954.639183295553	371.888054108206	1022.127670741739	1420.717356567183	517.906670318252	937.743411736748	1475.334997332156	694.691465463310	897.388840450121	1547.806138424875	517.144973405968	949.486785353023	1503.452995426447	330.062833253642	853.568734304524	1194.416200072875	192.758553033735	954.115215575156	921.977789231663	197.101056179186	875.517550892298	1159.230724294144	847.416449364807	1079.557901200302	969.013816914026	766.494266443629	991.407930339236	773.076094224839	336.735733866417	945.423172442228	689.357860240095	289.123339251234	1042.987153454187	655.137043671776	338.839408273756	1071.033322226118	507.639212816172	327.620571728700	971.841080340399	419.987618688370	352.924588320260	875.589302726899	404.940925043734	278.611684228431	871.193758430330	343.039343957878	366.019987374090	624.647445799618	242.455642014940	363.196465913923	680.648245558202	162.755837917492	312.285952912537	795.403108262360	155.952994284486	356.394230788381	852.064161231391	60.086068303158	372.486711960834	941.701330172434	732.832664882651	622.526667409998	849.036346600450	660.618346270747	675.634990213095	920.789093717353	605.523094090967	595.772703411929	914.834733904530	510.812001848443	619.965188605041	872.483990746149	419.438016105094	579.822455525941	807.050832547067	347.166215570652	659.852505909530	862.324585950789	281.165655258029	573.151632223651	750.558689020742	53.614021435284	527.261221243079	825.783784286840	24.652847141440	603.647002220125	932.375066808173	88.017909739665	583.463627357388	1036.496246069514	45.003430264321	588.005926415613	
111	17.122142857143	943.473928628127	965.957332997537	611.321419089948	914.503249241763	955.403388610289	372.435929396142	1022.039506703616	1419.979096638960	517.005327373388	938.575911707400	1475.673707831570	693.775684610795	898.222437301571	1547.969719010355	516.219384544612	949.810601454772	1502.880052269865	329.234145693350	853.090199708641	1193.812348232848	192.600464457055	952.960355988590	921.196764172501	198.304415084658	876.715118860968	1160.213363097547	847.711862602338	1080.511617438519	969.299147280320	767.730566791954	991.313312748870	778.032277773765	339.864113054047	948.192336703667	693.478860859738	291.183118862646	1045.783749475538	661.630139656507	342.436689161751	1078.109252726051	514.763325000654	330.468603239470	981.752222444885	423.870461417199	354.364901332014	886.223726258370	405.861640539778	279.669191360752	884.030465603929	343.030843623210	366.392394948125	641.665469398644	229.946174760850	362.353553780291	702.538397425790	156.210413169665	308.845528351500	817.293778589985	155.548832374566	353.012638614471	880.009386359312	63.447821365819	365.747412163146	937.517940837464	732.426745604491	622.934252184785	844.487288644052	660.585123804640	676.048891453098	915.943978170619	605.077102730767	596.161279935523	909.409072624443	510.339343522353	620.226590573803	866.530844848192	419.383111758049	580.122122670650	800.717673483437	347.417871253285	660.144156621293	855.385668210330	281.065701414967	573.310422277700	742.289851103724	53.648189815415	527.398688306631	817.616198824678	24.681083950748	603.732187490029	924.236418971670	87.979129855966	583.569075378509	1028.365310145145	45.044370959781	588.076117807064	
112	17.140071428571	940.261353477311	965.665058975418	611.308608034040	911.494149213407	956.322398197522	372.531668110285	1022.134744638387	1419.343406651232	515.953679169230	939.483211598808	1476.338014469342	692.683086893522	899.200084498580	1548.237905149136	515.018324236499	950.385753593112	1502.173640102970	328.154342715854	853.033625582138	1193.169595036111	192.019363660573	952.126533683666	920.349106814066	199.180726974695	876.996164785315	1161.596064961506	847.581898107379	1081.094053183454	970.726186414087	768.285174302653	990.496800695457	782.428755076424	342.519006415266	949.985103103898	697.257029153051	292.875782071418	1047.342871949575	667.419991254058	345.719627216117	1083.841146046241	521.700955800742	333.076222541316	991.423742118295	427.191607412297	355.601315077854	896.723399480651	405.239683157561	280.777008439065	897.895540714596	341.419253075476	366.623118882465	661.867088711387	213.474313023980	361.964007306987	727.508109954614	146.623499051373	305.547410070425	842.143330046375	153.099552780060	349.204003071315	911.564041017798	66.091014549874	358.156423946586	933.052976240902	731.901943192387	622.873558161281	839.720962571487	660.538284174744	676.143250449595	910.748750200767	604.559145638969	596.139594316027	903.698609929471	509.836930625825	620.154563941619	860.317464108603	419.333142464465	580.142758991607	794.153376081210	347.688631174104	660.215306790904	848.288065330615	280.981466128104	573.300101306012	734.018212790982	53.634966533699	527.475808113855	809.441107493407	24.709457082663	603.796836175320	916.051292858320	87.957687929663	583.684634192289	1020.219039968387	45.078855997644	588.142756868287	
